#!OML:ASF X:\für Bonn\!DataBase\2005_08_10_Bjorn_Final\c3d\bjorn.ASF
:FULLY-SPECIFIED
:DEGREES
215
root 1.92172 5.06657 19.0445 -416.868 -163.712 -720.847
lowerback 50.0088 3.26323 13.3184
upperback 25.9785 -3.52104 3.65754
thorax 9.60237 -6.3956 -2.1
lowerneck -6.97218 -0.554243 1.20491
upperneck 22.0013 -0.250993 -9.50177
head 7.89866 -1.36897 -3.45064
rclavicle -7.15625e-015 -5.1684e-014
rhumerus -213.944 -144.699 94.2894
rradius 19.4927
rwrist -37.6576
rhand -17.8162 -4.36787
rfingers 7.12502
rthumb 8.44773 -34.1789
lclavicle -7.15625e-015 -5.1684e-014
lhumerus -34.602 57.7821 63.7164
lradius 9.47159
lwrist -26.8711
lhand -19.8891 -360.978
lfingers 7.12502
lthumb 6.44687 28.9039
rfemur 12.6105 -73.1231 -104.972
rtibia 147.554
rfoot -31.3942 42.5343
rtoes -3.38739
lfemur 130.805 120.08 202.538
ltibia 146.758
lfoot -33.2363 -21.83
ltoes -20.2287
216
root 1.93052 5.06624 19.0784 -417.349 -163.425 -720.375
lowerback 50.0386 3.34612 13.3407
upperback 25.9225 -3.29273 3.76526
thorax 9.54481 -6.26126 -2.04136
lowerneck -6.95553 -0.661155 0.572252
upperneck 22.2076 -0.34232 -9.43881
head 7.96547 -1.47561 -3.33712
rclavicle 1.86858e-014 1.03368e-014
rhumerus -214.136 -144.881 94.2311
rradius 19.3816
rwrist -38.2065
rhand -17.4774 -4.69719
rfingers 7.12502
rthumb 8.77466 -34.4948
lclavicle 1.86858e-014 1.03368e-014
lhumerus -32.9966 57.0027 65.385
lradius 9.34106
lwrist -26.3213
lhand -21.3396 -359.809
lfingers 7.12502
lthumb 5.04648 30.1113
rfemur 7.88805 -73.2921 -99.3329
rtibia 147.118
rfoot -29.8735 41.7983
rtoes -3.93565
lfemur 130.68 120.186 202.449
ltibia 146.58
lfoot -33.0099 -21.8267
ltoes -19.9412
217
root 1.93707 5.06843 19.1129 -417.792 -163.175 -719.887
lowerback 50.0193 3.42611 13.3481
upperback 25.8765 -3.09161 3.90053
thorax 9.50494 -6.14789 -1.94386
lowerneck -7.03119 -0.770194 -0.14936
upperneck 22.4162 -0.417945 -9.3795
head 8.0534 -1.58493 -3.21035
rclavicle -8.78628e-014 -1.90833e-014
rhumerus -214.295 -145.032 94.2235
rradius 19.259
rwrist -38.5714
rhand -17.1304 -5.0002
rfingers 7.12502
rthumb 9.10951 -34.7835
lclavicle -8.78628e-014 -1.90833e-014
lhumerus -31.5218 56.2656 66.9012
lradius 9.17194
lwrist -25.7872
lhand -22.4513 -358.986
lfingers 7.12502
lthumb 3.97301 30.9568
rfemur 2.36991 -73.4438 -92.767
rtibia 146.613
rfoot -28.0859 41.0217
rtoes -4.38256
lfemur 130.473 120.283 202.307
ltibia 146.418
lfoot -32.7548 -21.9048
ltoes -19.6
218
root 1.94273 5.07267 19.1477 -418.229 -162.967 -719.387
lowerback 50.0181 3.47444 13.3681
upperback 25.7903 -2.90521 4.03045
thorax 9.41339 -6.03755 -1.84647
lowerneck -7.00314 -0.876166 -0.882892
upperneck 22.5604 -0.48959 -9.36251
head 8.10217 -1.69564 -3.09219
rclavicle -4.81059e-014 -7.95139e-016
rhumerus -214.549 -145.038 94.3482
rradius 19.093
rwrist -38.671
rhand -16.7812 -5.26246
rfingers 7.12502
rthumb 9.44648 -35.0307
lclavicle -4.81059e-014 -7.95139e-016
lhumerus -30.2763 55.5188 68.1929
lradius 8.99683
lwrist -25.2749
lhand -23.3532 -358.264
lfingers 7.12502
lthumb 3.10199 31.6929
rfemur -4.36308 -73.487 -84.8085
rtibia 145.995
rfoot -25.8802 40.1845
rtoes -4.52441
lfemur 130.355 120.347 202.27
ltibia 146.237
lfoot -32.491 -22.2036
ltoes -19.0739
219
root 1.9477 5.07835 19.1831 -418.649 -162.746 -718.898
lowerback 50.0387 3.50104 13.4014
upperback 25.6634 -2.70763 4.14358
thorax 9.26879 -5.90984 -1.76831
lowerneck -6.93481 -0.990115 -1.61049
upperneck 22.7249 -0.585427 -9.30401
head 8.15057 -1.81446 -2.96356
rclavicle 2.0276e-014 2.54444e-014
rhumerus -214.935 -144.83 94.6076
rradius 18.9135
rwrist -38.5919
rhand -16.3666 -5.48143
rfingers 7.12502
rthumb 9.84653 -35.2312
lclavicle 2.0276e-014 2.54444e-014
lhumerus -29.1756 54.6635 69.3108
lradius 8.75797
lwrist -24.8322
lhand -24.1626 -357.544
lfingers 7.12502
lthumb 2.32028 32.423
rfemur -12.2331 -73.3195 -75.6014
rtibia 145.255
rfoot -23.3841 39.2232
rtoes -4.74575
lfemur 130.033 120.551 201.949
ltibia 146.046
lfoot -32.1601 -22.47
ltoes -18.5735
220
root 1.95168 5.08547 19.2193 -419.069 -162.531 -718.425
lowerback 50.0927 3.50419 13.4378
upperback 25.519 -2.53291 4.24023
thorax 9.09752 -5.79334 -1.69938
lowerneck -6.91967 -1.10281 -2.35478
upperneck 22.9177 -0.67209 -9.26014
head 8.22067 -1.93537 -2.83888
rclavicle -2.28602e-014 -4.37326e-015
rhumerus -215.32 -144.608 94.9017
rradius 18.7038
rwrist -38.369
rhand -15.9569 -5.71979
rfingers 7.12502
rthumb 10.2417 -35.4505
lclavicle -2.28602e-014 -4.37326e-015
lhumerus -28.2329 53.8076 70.2735
lradius 8.51752
lwrist -24.4195
lhand -24.8329 -356.854
lfingers 7.12502
lthumb 1.67295 33.119
rfemur -21.2513 -72.6719 -65.1234
rtibia 144.378
rfoot -20.4501 38.1842
rtoes -4.47854
lfemur 129.716 120.828 201.537
ltibia 145.835
lfoot -31.8525 -22.6532
ltoes -18.1495
221
root 1.95477 5.0931 19.2544 -419.467 -162.324 -717.964
lowerback 50.1137 3.50071 13.4824
upperback 25.3881 -2.37063 4.32149
thorax 8.94647 -5.67854 -1.65183
lowerneck -6.92978 -1.20687 -3.06931
upperneck 23.1016 -0.74585 -9.22008
head 8.29403 -2.04793 -2.71999
rclavicle -7.03698e-014 -3.18055e-014
rhumerus -215.739 -144.265 95.2425
rradius 18.534
rwrist -38.0712
rhand -15.5688 -5.95941
rfingers 7.12502
rthumb 10.6162 -35.6712
lclavicle -7.03698e-014 -3.18055e-014
lhumerus -27.2754 52.9634 71.2369
lradius 8.23125
lwrist -24.0709
lhand -25.4492 -356.129
lfingers 7.12502
lthumb 1.0777 33.8478
rfemur -29.8019 -71.4951 -55.0799
rtibia 143.418
rfoot -17.5353 37.0217
rtoes -4.36328
lfemur 129.345 121.165 201.055
ltibia 145.623
lfoot -31.5349 -22.8604
ltoes -17.7023
222
root 1.95681 5.09968 19.2896 -419.84 -162.106 -717.533
lowerback 50.123 3.48614 13.5018
upperback 25.2544 -2.23269 4.38351
thorax 8.78905 -5.5755 -1.60775
lowerneck -6.91789 -1.3029 -3.83202
upperneck 23.2833 -0.810312 -9.15625
head 8.36521 -2.15916 -2.58439
rclavicle 3.04141e-014 1.31198e-014
rhumerus -216.162 -143.897 95.6141
rradius 18.3275
rwrist -37.7007
rhand -15.1816 -6.15226
rfingers 7.12502
rthumb 10.9896 -35.8446
lclavicle 3.04141e-014 1.31198e-014
lhumerus -26.4103 52.1481 72.1189
lradius 7.92235
lwrist -23.7799
lhand -25.9928 -355.481
lfingers 7.12502
lthumb 0.552687 34.498
rfemur -37.5758 -69.7857 -45.8744
rtibia 142.398
rfoot -14.502 35.6712
rtoes -4.12391
lfemur 128.749 121.701 200.258
ltibia 145.409
lfoot -31.0847 -22.9659
ltoes -17.3639
223
root 1.95835 5.10474 19.3248 -420.202 -161.898 -717.132
lowerback 50.138 3.46928 13.5216
upperback 25.1329 -2.10828 4.42261
thorax 8.64469 -5.47929 -1.58707
lowerneck -6.9567 -1.39685 -4.58929
upperneck 23.4596 -0.870753 -9.05078
head 8.44556 -2.26325 -2.43636
rclavicle 5.725e-014 -1.55052e-014
rhumerus -216.542 -143.556 95.9308
rradius 18.1498
rwrist -37.3802
rhand -14.8463 -6.35041
rfingers 7.12502
rthumb 11.313 -36.0253
lclavicle 5.725e-014 -1.55052e-014
lhumerus -25.5734 51.3517 72.9718
lradius 7.63605
lwrist -23.4073
lhand -26.4772 -354.856
lfingers 7.12502
lthumb 0.0848023 35.1234
rfemur -44.0997 -67.6263 -37.9633
rtibia 141.321
rfoot -11.5456 34.1415
rtoes -3.98233
lfemur 128.079 122.327 199.358
ltibia 145.199
lfoot -30.6169 -23.0522
ltoes -16.9921
224
root 1.95839 5.10939 19.3588 -420.531 -161.754 -716.753
lowerback 50.1223 3.44947 13.5685
upperback 25.0211 -1.98784 4.45797
thorax 8.51888 -5.38211 -1.5854
lowerneck -7.04385 -1.48704 -5.39741
upperneck 23.6609 -0.913783 -8.94245
head 8.54646 -2.36702 -2.28001
rclavicle -1.35174e-014 -5.96354e-015
rhumerus -216.927 -143.2 96.2639
rradius 18.0521
rwrist -37.0232
rhand -14.5613 -6.58916
rfingers 7.12502
rthumb 11.5878 -36.2488
lclavicle -1.35174e-014 -5.96354e-015
lhumerus -24.8597 50.5637 73.7231
lradius 7.36533
lwrist -22.8964
lhand -26.9949 -354.386
lfingers 7.12502
lthumb -0.415141 35.5932
rfemur -49.3584 -65.1571 -31.3131
rtibia 140.195
rfoot -8.73137 32.4924
rtoes -3.81559
lfemur 127.498 122.87 198.61
ltibia 145.008
lfoot -30.1389 -23.1618
ltoes -16.6206
225
root 1.95762 5.11301 19.3924 -420.839 -161.615 -716.39
lowerback 50.0896 3.44305 13.6117
upperback 24.9384 -1.87739 4.51954
thorax 8.43156 -5.29922 -1.55673
lowerneck -7.25984 -1.56704 -6.23376
upperneck 23.8695 -0.913117 -8.84828
head 8.67716 -2.45648 -2.1233
rclavicle -7.7526e-015 6.75868e-015
rhumerus -217.197 -142.907 96.5456
rradius 17.9922
rwrist -36.8252
rhand -14.3481 -6.82542
rfingers 7.12502
rthumb 11.7934 -36.4734
lclavicle -7.7526e-015 6.75868e-015
lhumerus -24.1482 49.809 74.5312
lradius 7.11691
lwrist -22.3337
lhand -27.5576 -354.004
lfingers 7.12502
lthumb -0.958596 35.9731
rfemur -53.4304 -62.4877 -25.8971
rtibia 139.017
rfoot -6.09605 30.7624
rtoes -3.7076
lfemur 126.834 123.526 197.769
ltibia 144.821
lfoot -29.6124 -23.2756
ltoes -16.1602
226
root 1.95592 5.11533 19.4247 -421.138 -161.492 -716.015
lowerback 50.0515 3.40829 13.709
upperback 24.8581 -1.7814 4.57124
thorax 8.35323 -5.21558 -1.55976
lowerneck -7.43693 -1.64105 -7.00929
upperneck 23.9838 -0.905663 -8.77968
head 8.76785 -2.53254 -1.98101
rclavicle 6.84813e-014 3.73715e-014
rhumerus -217.42 -142.474 96.8709
rradius 17.8499
rwrist -36.4931
rhand -14.2028 -7.03502
rfingers 7.12502
rthumb 11.9336 -36.6749
lclavicle 6.84813e-014 3.73715e-014
lhumerus -23.493 49.015 75.258
lradius 6.87122
lwrist -21.7261
lhand -28.0771 -353.699
lfingers 7.12502
lthumb -1.46033 36.2759
rfemur -56.4304 -59.8158 -21.6286
rtibia 137.815
rfoot -3.56884 29.0391
rtoes -3.3857
lfemur 126.111 124.277 196.858
ltibia 144.646
lfoot -29.0765 -23.2738
ltoes -15.8919
